<svg id="Layer_1" data-name="Layer 1" xmlns="http://www.w3.org/2000/svg" viewBox="0 0 160.49 26.91"><defs><style>.cls-1{fill:#fff941;}</style></defs><path class="cls-1" d="M27.13,0c2,1.14,4.71,2.06,6.6,3.81C39,8.68,43.94,13.9,49,19c3.06,3,5.54,3.05,8.6,0,5-4.92,9.87-9.88,14.82-14.81s10.29-5,15.2-.08,10,10,15,15c2.91,2.88,5.47,2.85,8.39-.05,5-5,10-10,15-15,4.6-4.54,10-4.91,14.67-.52,6.3,5.93,12.3,12.17,18.41,18.3,1.3,1.31,2,2.9.38,4.36s-3.1.57-4.39-.73L138.26,8.54c-3.6-3.6-5.57-3.61-9.16,0-4.88,4.86-9.69,9.78-14.61,14.6s-10.4,4.76-15.27-.09S89.49,13.27,84.61,8.41C81.18,5,79,5,75.62,8.34,70.74,13.2,65.89,18.09,61,23S50.6,28,45.53,23c-4.76-4.69-9.46-9.46-14.18-14.18-4-4-5.74-3.95-9.79.1Q13.64,16.83,5.71,24.75c-.62.62-1.26,1.51-2,1.66-1,.2-2.53.18-3.14-.44S-.21,23.41.29,22.9c7-7.12,14.15-14.16,21.43-21C22.8.84,24.78.77,27.13,0Z"/></svg>